<svg width="40" height="39" viewBox="0 0 40 39" fill="none" xmlns="http://www.w3.org/2000/svg">
<rect x="0.108115" y="0.108115" width="39.7838" height="38.7838" rx="6.81124" fill="#1C18C9"/>
<rect x="0.108115" y="0.108115" width="39.7838" height="38.7838" rx="6.81124" stroke="#D1D1D1" stroke-width="0.21623"/>
<path d="M18.5233 27.3165C18.5233 27.4373 18.3747 27.6231 18.0774 27.874C17.7801 28.1155 17.5199 28.2363 17.2969 28.2363H10.9697C12.2425 23.1076 13.1484 17.1381 13.6873 10.3277C13.6873 10.2162 13.836 10.0443 14.1333 9.81203C14.4306 9.57046 14.6861 9.44503 14.8998 9.43574C17.6871 9.20346 19.8148 9.08732 21.2828 9.08732C19.9449 14.8664 19.0251 20.9428 18.5233 27.3165ZM28.6414 21.9648L28.4463 24.7661C28.4463 25.2771 28.5392 25.6859 28.725 25.9925C28.9108 26.2991 29.2546 26.4896 29.7563 26.5639C29.6634 27.1493 29.5101 27.6278 29.2964 27.9994C27.6333 28.3896 26.2164 28.5847 25.0457 28.5847C23.8843 28.5847 22.9831 28.4268 22.342 28.1109C21.7102 27.7857 21.3943 27.284 21.3943 26.6057C21.3943 25.9275 21.4965 25.003 21.7009 23.8323C21.9146 22.6524 22.0215 21.8162 22.0215 21.3237C22.0215 20.822 21.91 20.4039 21.687 20.0694C21.464 19.7349 21.162 19.5491 20.7811 19.512C20.8275 19.0939 20.9855 18.7222 21.2549 18.397C22.0354 17.9882 22.644 17.3518 23.0806 16.4877C23.5173 15.6236 23.7357 14.6899 23.7357 13.6864C23.7357 12.1813 23.285 10.9595 22.3838 10.0211C22.3838 9.88171 22.5325 9.6866 22.8298 9.43574C23.1271 9.18488 23.3826 9.05945 23.5963 9.05945C25.2594 9.05945 26.6995 9.40322 27.9167 10.0908C28.5299 10.4438 29.0177 10.927 29.38 11.5402C29.7424 12.1534 29.9236 12.8595 29.9236 13.6586C29.9236 14.9686 29.3243 16.0835 28.1257 17.0034C26.9272 17.9232 25.3244 18.4528 23.3176 18.5921L24.5719 18.7036C25.7983 18.8244 26.7832 19.1496 27.5264 19.6792C28.2697 20.1995 28.6414 20.9614 28.6414 21.9648Z" fill="white"/>
</svg>
